/videos/d6314b0f-be3f-ac46-2c46-d950aa9d4cf3/hls1/main/345.ts

{"Protocol":0,"Id":"d6314b0fbe3fac462c46d950aa9d4cf3","Path":"/data/tvshows/The IT Crowd/Season 3/The IT Crowd - S03E03 - Tramps Like Us WEBDL-720p Proper.mp4","EncoderPath":null,"EncoderProtocol":null,"Type":0,"Container":"mov,mp4,m4a,3gp,3g2,mj2","Size":175706160,"Name":"The IT Crowd - S03E03 - Tramps Like Us WEBDL-720p Proper","IsRemote":false,"ETag":"6f64a3357788a7a9474014ca24d8cd9a","RunTimeTicks":13180319744,"ReadAtNativeFramerate":false,"IgnoreDts":false,"IgnoreIndex":false,"GenPtsInput":false,"SupportsTranscoding":true,"SupportsDirectStream":true,"SupportsDirectPlay":true,"IsInfiniteStream":false,"RequiresOpening":false,"OpenToken":null,"RequiresClosing":false,"LiveStreamId":null,"BufferMs":null,"RequiresLooping":false,"SupportsProbing":true,"VideoType":0,"IsoType":null,"Video3DFormat":null,"MediaStreams":[{"Codec":"subrip","CodecTag":null,"Language":"eng","ColorRange":null,"ColorSpace":null,"ColorTransfer":null,"ColorPrimaries":null,"DvVersionMajor":null,"DvVersionMinor":null,"DvProfile":null,"DvLevel":null,"RpuPresentFlag":null,"ElPresentFlag":null,"BlPresentFlag":null,"DvBlSignalCompatibilityId":null,"Comment":null,"TimeBase":"1/1000","CodecTimeBase":null,"Title":null,"VideoRange":null,"VideoRangeType":null,"VideoDoViTitle":null,"LocalizedUndefined":"Undefined","LocalizedDefault":"Default","LocalizedForced":"Forced","LocalizedExternal":"External","DisplayTitle":"English - Forced - SUBRIP - External","NalLengthSize":null,"IsInterlaced":false,"IsAVC":null,"ChannelLayout":null,"BitRate":null,"BitDepth":null,"RefFrames":null,"PacketLength":null,"Channels":null,"SampleRate":null,"IsDefault":false,"IsForced":true,"Height":null,"Width":null,"AverageFrameRate":null,"RealFrameRate":null,"Profile":null,"Type":2,"AspectRatio":null,"Index":0,"Score":null,"IsExternal":true,"DeliveryMethod":null,"DeliveryUrl":null,"IsExternalUrl":null,"IsTextSubtitleStream":true,"SupportsExternalStream":true,"Path":"/data/tvshows/The IT Crowd/Season 3/The IT Crowd - S03E03 - Tramps Like Us WEBDL-720p Proper.en.forced.srt","PixelFormat":null,"Level":0,"IsAnamorphic":null},{"Codec":"h264","CodecTag":"avc1","Language":"und","ColorRange":null,"ColorSpace":"bt709","ColorTransfer":"bt709","ColorPrimaries":"bt709","DvVersionMajor":null,"DvVersionMinor":null,"DvProfile":null,"DvLevel":null,"RpuPresentFlag":null,"ElPresentFlag":null,"BlPresentFlag":null,"DvBlSignalCompatibilityId":null,"Comment":null,"TimeBase":"1/16000","CodecTimeBase":null,"Title":null,"VideoRange":"SDR","VideoRangeType":"SDR","VideoDoViTitle":null,"LocalizedUndefined":null,"LocalizedDefault":null,"LocalizedForced":null,"LocalizedExternal":null,"DisplayTitle":"720p H264 SDR","NalLengthSize":"4","IsInterlaced":false,"IsAVC":true,"ChannelLayout":null,"BitRate":930759,"BitDepth":8,"RefFrames":1,"PacketLength":null,"Channels":null,"SampleRate":null,"IsDefault":true,"IsForced":false,"Height":720,"Width":1274,"AverageFrameRate":25,"RealFrameRate":25,"Profile":"Main","Type":1,"AspectRatio":"16:9","Index":1,"Score":null,"IsExternal":false,"DeliveryMethod":null,"DeliveryUrl":null,"IsExternalUrl":null,"IsTextSubtitleStream":false,"SupportsExternalStream":false,"Path":null,"PixelFormat":"yuv420p","Level":52,"IsAnamorphic":null},{"Codec":"mov_text","CodecTag":"tx3g","Language":"eng","ColorRange":null,"ColorSpace":null,"ColorTransfer":null,"ColorPrimaries":null,"DvVersionMajor":null,"DvVersionMinor":null,"DvProfile":null,"DvLevel":null,"RpuPresentFlag":null,"ElPresentFlag":null,"BlPresentFlag":null,"DvBlSignalCompatibilityId":null,"Comment":null,"TimeBase":"1/1000000","CodecTimeBase":null,"Title":null,"VideoRange":null,"VideoRangeType":null,"VideoDoViTitle":null,"LocalizedUndefined":"Undefined","LocalizedDefault":"Default","LocalizedForced":"Forced","LocalizedExternal":"External","DisplayTitle":"English - Default - Forced - MOV_TEXT","NalLengthSize":null,"IsInterlaced":false,"IsAVC":null,"ChannelLayout":null,"BitRate":73,"BitDepth":null,"RefFrames":null,"PacketLength":null,"Channels":null,"SampleRate":null,"IsDefault":true,"IsForced":true,"Height":null,"Width":null,"AverageFrameRate":null,"RealFrameRate":null,"Profile":null,"Type":2,"AspectRatio":null,"Index":2,"Score":null,"IsExternal":false,"DeliveryMethod":null,"DeliveryUrl":null,"IsExternalUrl":null,"IsTextSubtitleStream":true,"SupportsExternalStream":true,"Path":null,"PixelFormat":null,"Level":0,"IsAnamorphic":null},{"Codec":"aac","CodecTag":"mp4a","Language":"eng","ColorRange":null,"ColorSpace":null,"ColorTransfer":null,"ColorPrimaries":null,"DvVersionMajor":null,"DvVersionMinor":null,"DvProfile":null,"DvLevel":null,"RpuPresentFlag":null,"ElPresentFlag":null,"BlPresentFlag":null,"DvBlSignalCompatibilityId":null,"Comment":null,"TimeBase":"1/48000","CodecTimeBase":null,"Title":null,"VideoRange":null,"VideoRangeType":null,"VideoDoViTitle":null,"LocalizedUndefined":null,"LocalizedDefault":null,"LocalizedForced":null,"LocalizedExternal":null,"DisplayTitle":"English - AAC - Stereo - Default","NalLengthSize":null,"IsInterlaced":false,"IsAVC":null,"ChannelLayout":"stereo","BitRate":129526,"BitDepth":null,"RefFrames":null,"PacketLength":null,"Channels":2,"SampleRate":48000,"IsDefault":true,"IsForced":false,"Height":null,"Width":null,"AverageFrameRate":null,"RealFrameRate":null,"Profile":"LC","Type":0,"AspectRatio":null,"Index":3,"Score":null,"IsExternal":false,"DeliveryMethod":null,"DeliveryUrl":null,"IsExternalUrl":null,"IsTextSubtitleStream":false,"SupportsExternalStream":false,"Path":null,"PixelFormat":null,"Level":0,"IsAnamorphic":null}],"MediaAttachments":[],"Formats":[],"Bitrate":1066475,"Timestamp":null,"RequiredHttpHeaders":{},"TranscodingUrl":null,"TranscodingSubProtocol":null,"TranscodingContainer":null,"AnalyzeDurationMs":null,"DefaultAudioStreamIndex":null,"DefaultSubtitleStreamIndex":null}

/usr/lib/jellyfin-ffmpeg/ffmpeg -analyzeduration 200M -ss 00:17:15.000 -f mov,mp4,m4a,3gp,3g2,mj2 -autorotate 0 -i file:"/data/tvshows/The IT Crowd/Season 3/The IT Crowd - S03E03 - Tramps Like Us WEBDL-720p Proper.mp4" -map_metadata -1 -map_chapters -1 -threads 0 -map 0:0 -map 0:2 -map -0:s -codec:v:0 libx264 -preset veryfast -crf 23 -maxrate 4653796 -bufsize 9307592 -profile:v:0 main -level 51 -x264opts:0 subme=0:me_range=4:rc_lookahead=10:me=dia:no_chroma_me:8x8dct=0:partitions=none -force_key_frames:0 "expr:gte(t,1035+n_forced*3)" -sc_threshold:v:0 0 -vf "setparams=color_primaries=bt709:color_trc=bt709:colorspace=bt709,scale=trunc(min(max(iw\,ih*a)\,min(1274\,720*a))/2)*2:trunc(min(max(iw/a\,ih)\,min(1274/a\,720))/2)*2,format=yuv420p" -start_at_zero -codec:a:0 copy -copyts -avoid_negative_ts disabled -max_muxing_queue_size 2048 -f hls -max_delay 5000000 -hls_time 3 -hls_segment_type mpegts -start_number 345 -hls_segment_filename "/config/data/transcodes/bbedb369121ca7fc33c10c3fdaa84ca8%d.ts" -hls_playlist_type vod -hls_list_size 0 -y "/config/data/transcodes/bbedb369121ca7fc33c10c3fdaa84ca8.m3u8"


ffmpeg version 5.1.3-Jellyfin Copyright (c) 2000-2022 the FFmpeg developers
  built with gcc 11 (Ubuntu 11.3.0-1ubuntu1~22.04.1)
  configuration: --prefix=/usr/lib/jellyfin-ffmpeg --target-os=linux --extra-libs=-lfftw3f --extra-version=Jellyfin --disable-doc --disable-ffplay --disable-ptx-compression --disable-static --disable-libxcb --disable-sdl2 --disable-xlib --enable-lto --enable-gpl --enable-version3 --enable-shared --enable-gmp --enable-gnutls --enable-chromaprint --enable-libdrm --enable-libass --enable-libfreetype --enable-libfribidi --enable-libfontconfig --enable-libbluray --enable-libmp3lame --enable-libopus --enable-libtheora --enable-libvorbis --enable-libopenmpt --enable-libdav1d --enable-libwebp --enable-libvpx --enable-libx264 --enable-libx265 --enable-libzvbi --enable-libzimg --enable-libfdk-aac --arch=amd64 --enable-libsvtav1 --enable-libshaderc --enable-libplacebo --enable-vulkan --enable-opencl --enable-vaapi --enable-amf --enable-libmfx --enable-ffnvcodec --enable-cuda --enable-cuda-llvm --enable-cuvid --enable-nvdec --enable-nvenc
  libavutil      57. 28.100 / 57. 28.100
  libavcodec     59. 37.100 / 59. 37.100
  libavformat    59. 27.100 / 59. 27.100
  libavdevice    59.  7.100 / 59.  7.100
  libavfilter     8. 44.100 /  8. 44.100
  libswscale      6.  7.100 /  6.  7.100
  libswresample   4.  7.100 /  4.  7.100
  libpostproc    56.  6.100 / 56.  6.100
Input #0, mov,mp4,m4a,3gp,3g2,mj2, from 'file:/data/tvshows/The IT Crowd/Season 3/The IT Crowd - S03E03 - Tramps Like Us WEBDL-720p Proper.mp4':
  Metadata:
    major_brand     : isom
    minor_version   : 512
    compatible_brands: isomiso2avc1mp41
    encoder         : Lavf60.3.100
  Duration: 00:21:58.03, start: 0.000000, bitrate: 1066 kb/s
  Stream #0:0[0x1](und): Video: h264 (Main) (avc1 / 0x31637661), yuv420p(tv, bt709, progressive), 1274x720 [SAR 1:1 DAR 637:360], 930 kb/s, 25 fps, 25 tbr, 16k tbn (default)
    Metadata:
      handler_name    : VideoHandler
      vendor_id       : [0][0][0][0]
  Stream #0:1[0x2](eng): Subtitle: mov_text (tx3g / 0x67337874), 0 kb/s (default) (forced)
    Metadata:
      handler_name    : SubtitleHandler
  Stream #0:2[0x3](eng): Audio: aac (LC) (mp4a / 0x6134706D), 48000 Hz, stereo, fltp, 129 kb/s (default)
    Metadata:
      handler_name    : SoundHandler
      vendor_id       : [0][0][0][0]
Stream mapping:
  Stream #0:0 -> #0:0 (h264 (native) -> h264 (libx264))
  Stream #0:2 -> #0:1 (copy)
Press [q] to stop, [?] for help
[libx264 @ 0x5568621a5f00] using SAR=1/1
[libx264 @ 0x5568621a5f00] using cpu capabilities: MMX2 SSE2Fast SSSE3 SSE4.2 AVX FMA3 BMI2 AVX2
[libx264 @ 0x5568621a5f00] profile Main, level 5.1, 4:2:0, 8-bit
[libx264 @ 0x5568621a5f00] 264 - core 163 r3060 5db6aa6 - H.264/MPEG-4 AVC codec - Copyleft 2003-2021 - http://www.videolan.org/x264.html - options: cabac=1 ref=1 deblock=1:0:0 analyse=0x1:0 me=dia subme=0 psy=1 psy_rd=1.00:0.00 mixed_ref=0 me_range=4 chroma_me=0 trellis=0 8x8dct=0 cqm=0 deadzone=21,11 fast_pskip=1 chroma_qp_offset=0 threads=6 lookahead_threads=1 sliced_threads=0 nr=0 decimate=1 interlaced=0 bluray_compat=0 constrained_intra=0 bframes=3 b_pyramid=2 b_adapt=1 b_bias=0 direct=1 weightb=1 open_gop=0 weightp=1 keyint=250 keyint_min=25 scenecut=0 intra_refresh=0 rc_lookahead=10 rc=crf mbtree=1 crf=23.0 qcomp=0.60 qpmin=0 qpmax=69 qpstep=4 vbv_maxrate=4653 vbv_bufsize=9307 crf_max=0.0 nal_hrd=none filler=0 ip_ratio=1.40 aq=1:1.00
Output #0, hls, to '/config/data/transcodes/bbedb369121ca7fc33c10c3fdaa84ca8.m3u8':
  Metadata:
    encoder         : Lavf59.27.100
  Stream #0:0: Video: h264, yuv420p(tv, bt709, progressive), 1274x720 [SAR 1:1 DAR 637:360], q=2-31, 25 fps, 90k tbn (default)
    Metadata:
      encoder         : Lavc59.37.100 libx264
    Side data:
      cpb: bitrate max/min/avg: 4653000/0/0 buffer size: 9307000 vbv_delay: N/A
  Stream #0:1: Audio: aac (LC) (mp4a / 0x6134706D), 48000 Hz, stereo, fltp, 129 kb/s (default)
frame=    1 fps=0.8 q=0.0 size=N/A time=00:00:00.00 bitrate=N/A speed=   0x    
frame=   13 fps=7.6 q=0.0 size=N/A time=00:00:00.49 bitrate=N/A speed=0.288x    
frame=   23 fps= 10 q=28.0 size=N/A time=00:00:00.89 bitrate=N/A speed=0.393x    
frame=   60 fps= 21 q=28.0 size=N/A time=00:00:02.36 bitrate=N/A speed=0.846x    
frame=  100 fps= 30 q=28.0 size=N/A time=00:00:03.96 bitrate=N/A speed=1.17x    
frame=  123 fps= 32 q=28.0 size=N/A time=00:00:04.88 bitrate=N/A speed=1.25x    
frame=  158 fps= 36 q=28.0 size=N/A time=00:00:06.29 bitrate=N/A speed=1.43x    
frame=  205 fps= 42 q=28.0 size=N/A time=00:00:08.17 bitrate=N/A speed=1.67x    
frame=  244 fps= 45 q=28.0 size=N/A time=00:00:09.72 bitrate=N/A speed= 1.8x    
frame=  263 fps= 45 q=28.0 size=N/A time=00:00:10.47 bitrate=N/A speed=1.77x    
[hls @ 0x556862366080] Opening '/config/data/transcodes/bbedb369121ca7fc33c10c3fdaa84ca8345.ts' for writing
frame=  289 fps= 45 q=28.0 size=N/A time=00:00:11.54 bitrate=N/A speed= 1.8x    
frame=  328 fps= 47 q=28.0 size=N/A time=00:00:13.09 bitrate=N/A speed=1.89x    
frame=  364 fps= 48 q=28.0 size=N/A time=00:00:14.52 bitrate=N/A speed=1.94x    
frame=  388 fps= 48 q=28.0 size=N/A time=00:00:15.48 bitrate=N/A speed=1.93x    
frame=  406 fps= 48 q=28.0 size=N/A time=00:00:16.21 bitrate=N/A speed= 1.9x    
frame=  456 fps= 50 q=28.0 size=N/A time=00:00:18.21 bitrate=N/A speed=2.02x    
frame=  505 fps= 53 q=28.0 size=N/A time=00:00:20.18 bitrate=N/A speed= 2.1x    
[hls @ 0x556862366080] Opening '/config/data/transcodes/bbedb369121ca7fc33c10c3fdaa84ca8346.ts' for writing
frame=  530 fps= 52 q=28.0 size=N/A time=00:00:21.18 bitrate=N/A speed=2.09x    
frame=  551 fps= 52 q=28.0 size=N/A time=00:00:22.01 bitrate=N/A speed=2.07x    
frame=  578 fps= 52 q=28.0 size=N/A time=00:00:23.10 bitrate=N/A speed=2.08x    
frame=  610 fps= 52 q=28.0 size=N/A time=00:00:24.38 bitrate=N/A speed= 2.1x    
frame=  637 fps= 52 q=28.0 size=N/A time=00:00:25.45 bitrate=N/A speed= 2.1x    
frame=  663 fps= 52 q=28.0 size=N/A time=00:00:26.49 bitrate=N/A speed= 2.1x    
frame=  688 fps= 52 q=28.0 size=N/A time=00:00:27.49 bitrate=N/A speed=2.09x    
frame=  710 fps= 52 q=28.0 size=N/A time=00:00:28.37 bitrate=N/A speed=2.08x    
frame=  732 fps= 52 q=28.0 size=N/A time=00:00:29.24 bitrate=N/A speed=2.07x    
frame=  764 fps= 52 q=28.0 size=N/A time=00:00:30.52 bitrate=N/A speed=2.08x    
[hls @ 0x556862366080] Opening '/config/data/transcodes/bbedb369121ca7fc33c10c3fdaa84ca8347.ts' for writing
frame=  782 fps= 52 q=28.0 size=N/A time=00:00:31.25 bitrate=N/A speed=2.06x    
frame=  798 fps= 51 q=28.0 size=N/A time=00:00:31.89 bitrate=N/A speed=2.04x    
frame=  813 fps= 50 q=28.0 size=N/A time=00:00:32.49 bitrate=N/A speed=2.01x    
frame=  829 fps= 50 q=28.0 size=N/A time=00:00:33.13 bitrate=N/A speed=1.99x    
frame=  850 fps= 49 q=28.0 size=N/A time=00:00:33.98 bitrate=N/A speed=1.97x    
frame=  866 fps= 49 q=28.0 size=N/A time=00:00:34.62 bitrate=N/A speed=1.95x    
frame=  888 fps= 49 q=28.0 size=N/A time=00:00:35.49 bitrate=N/A speed=1.94x    
frame=  910 fps= 48 q=28.0 size=N/A time=00:00:36.37 bitrate=N/A speed=1.93x    
frame=  933 fps= 48 q=28.0 size=N/A time=00:00:37.29 bitrate=N/A speed=1.93x    
frame=  954 fps= 48 q=28.0 size=N/A time=00:00:38.14 bitrate=N/A speed=1.92x    
frame=  969 fps= 48 q=28.0 size=N/A time=00:00:38.74 bitrate=N/A speed= 1.9x    
frame=  988 fps= 47 q=28.0 size=N/A time=00:00:39.48 bitrate=N/A speed=1.89x    
frame= 1008 fps= 47 q=28.0 size=N/A time=00:00:40.29 bitrate=N/A speed=1.88x    
[hls @ 0x556862366080] Opening '/config/data/transcodes/bbedb369121ca7fc33c10c3fdaa84ca8348.ts' for writing
frame= 1021 fps= 46 q=28.0 size=N/A time=00:00:40.81 bitrate=N/A speed=1.86x    
frame= 1048 fps= 46 q=28.0 size=N/A time=00:00:41.89 bitrate=N/A speed=1.85x    
frame= 1070 fps= 46 q=28.0 size=N/A time=00:00:42.77 bitrate=N/A speed=1.85x    
frame= 1096 fps= 46 q=28.0 size=N/A time=00:00:43.81 bitrate=N/A speed=1.86x    
frame= 1118 fps= 46 q=28.0 size=N/A time=00:00:44.69 bitrate=N/A speed=1.85x    
frame= 1135 fps= 46 q=28.0 size=N/A time=00:00:45.37 bitrate=N/A speed=1.84x    
frame= 1153 fps= 46 q=28.0 size=N/A time=00:00:46.10 bitrate=N/A speed=1.84x    
frame= 1173 fps= 46 q=28.0 size=N/A time=00:00:46.89 bitrate=N/A speed=1.83x    
frame= 1193 fps= 46 q=28.0 size=N/A time=00:00:47.70 bitrate=N/A speed=1.83x    
frame= 1211 fps= 45 q=28.0 size=N/A time=00:00:48.40 bitrate=N/A speed=1.82x    
frame= 1232 fps= 45 q=28.0 size=N/A time=00:00:49.25 bitrate=N/A speed=1.82x    
frame= 1252 fps= 45 q=28.0 size=N/A time=00:00:50.04 bitrate=N/A speed= 1.8x    
frame= 1270 fps= 45 q=28.0 size=N/A time=00:00:50.77 bitrate=N/A speed= 1.8x    
[hls @ 0x556862366080] Opening '/config/data/transcodes/bbedb369121ca7fc33c10c3fdaa84ca8349.ts' for writing
frame= 1277 fps= 44 q=28.0 size=N/A time=00:00:51.05 bitrate=N/A speed=1.78x    
frame= 1305 fps= 45 q=28.0 size=N/A time=00:00:52.18 bitrate=N/A speed=1.78x    
frame= 1322 fps= 44 q=28.0 size=N/A time=00:00:52.86 bitrate=N/A speed=1.78x    
frame= 1335 fps= 44 q=28.0 size=N/A time=00:00:53.37 bitrate=N/A speed=1.76x    
frame= 1353 fps= 44 q=28.0 size=N/A time=00:00:54.10 bitrate=N/A speed=1.75x    
frame= 1375 fps= 44 q=28.0 size=N/A time=00:00:54.97 bitrate=N/A speed=1.75x    
frame= 1395 fps= 44 q=28.0 size=N/A time=00:00:55.76 bitrate=N/A speed=1.75x    
frame= 1408 fps= 43 q=28.0 size=N/A time=00:00:56.29 bitrate=N/A speed=1.74x    
frame= 1425 fps= 43 q=28.0 size=N/A time=00:00:56.98 bitrate=N/A speed=1.73x    
frame= 1449 fps= 43 q=28.0 size=N/A time=00:00:57.94 bitrate=N/A speed=1.73x    
frame= 1475 fps= 43 q=28.0 size=N/A time=00:00:58.96 bitrate=N/A speed=1.74x    
frame= 1494 fps= 43 q=28.0 size=N/A time=00:00:59.73 bitrate=N/A speed=1.73x    
frame= 1520 fps= 43 q=28.0 size=N/A time=00:01:00.77 bitrate=N/A speed=1.73x    
[hls @ 0x556862366080] Opening '/config/data/transcodes/bbedb369121ca7fc33c10c3fdaa84ca8350.ts' for writing
frame= 1532 fps= 43 q=28.0 size=N/A time=00:01:01.24 bitrate=N/A speed=1.72x    
frame= 1556 fps= 43 q=28.0 size=N/A time=00:01:02.20 bitrate=N/A speed=1.72x    
frame= 1587 fps= 43 q=28.0 size=N/A time=00:01:03.44 bitrate=N/A speed=1.73x    
frame= 1621 fps= 44 q=28.0 size=N/A time=00:01:04.81 bitrate=N/A speed=1.75x    
frame= 1648 fps= 44 q=28.0 size=N/A time=00:01:05.89 bitrate=N/A speed=1.75x    
frame= 1671 fps= 44 q=28.0 size=N/A time=00:01:06.81 bitrate=N/A speed=1.75x    
frame= 1692 fps= 44 q=28.0 size=N/A time=00:01:07.64 bitrate=N/A speed=1.75x    
frame= 1704 fps= 43 q=28.0 size=N/A time=00:01:08.13 bitrate=N/A speed=1.74x    
frame= 1717 fps= 43 q=28.0 size=N/A time=00:01:08.65 bitrate=N/A speed=1.73x    
frame= 1733 fps= 43 q=28.0 size=N/A time=00:01:09.29 bitrate=N/A speed=1.71x    
frame= 1742 fps= 42 q=28.0 size=N/A time=00:01:09.65 bitrate=N/A speed= 1.7x    
frame= 1752 fps= 42 q=28.0 size=N/A time=00:01:10.05 bitrate=N/A speed=1.69x    
frame= 1762 fps= 42 q=28.0 size=N/A time=00:01:10.46 bitrate=N/A speed=1.67x    
[hls @ 0x556862366080] Opening '/config/data/transcodes/bbedb369121ca7fc33c10c3fdaa84ca8351.ts' for writing
frame= 1775 fps= 41 q=28.0 size=N/A time=00:01:10.97 bitrate=N/A speed=1.66x    
frame= 1782 fps= 41 q=28.0 size=N/A time=00:01:11.25 bitrate=N/A speed=1.65x    
frame= 1790 fps= 41 q=28.0 size=N/A time=00:01:11.57 bitrate=N/A speed=1.63x    
frame= 1800 fps= 41 q=28.0 size=N/A time=00:01:11.97 bitrate=N/A speed=1.62x    
frame= 1819 fps= 40 q=28.0 size=N/A time=00:01:12.72 bitrate=N/A speed=1.62x    
frame= 1834 fps= 40 q=28.0 size=N/A time=00:01:13.34 bitrate=N/A speed=1.61x    
frame= 1844 fps= 40 q=28.0 size=N/A time=00:01:13.72 bitrate=N/A speed= 1.6x    
frame= 1855 fps= 40 q=28.0 size=N/A time=00:01:14.17 bitrate=N/A speed=1.59x    
frame= 1870 fps= 40 q=28.0 size=N/A time=00:01:14.77 bitrate=N/A speed=1.59x    
frame= 1887 fps= 40 q=28.0 size=N/A time=00:01:15.45 bitrate=N/A speed=1.58x    
frame= 1898 fps= 39 q=28.0 size=N/A time=00:01:15.90 bitrate=N/A speed=1.57x    
frame= 1908 fps= 39 q=28.0 size=N/A time=00:01:16.28 bitrate=N/A speed=1.56x    
frame= 1917 fps= 39 q=28.0 size=N/A time=00:01:16.65 bitrate=N/A speed=1.55x    
frame= 1927 fps= 39 q=28.0 size=N/A time=00:01:17.05 bitrate=N/A speed=1.55x    
frame= 1938 fps= 38 q=28.0 size=N/A time=00:01:17.50 bitrate=N/A speed=1.54x    
frame= 1949 fps= 38 q=28.0 size=N/A time=00:01:17.93 bitrate=N/A speed=1.53x    
frame= 1955 fps= 38 q=28.0 size=N/A time=00:01:18.16 bitrate=N/A speed=1.52x    
frame= 1967 fps= 38 q=28.0 size=N/A time=00:01:18.65 bitrate=N/A speed=1.51x    
frame= 1973 fps= 38 q=28.0 size=N/A time=00:01:18.89 bitrate=N/A speed= 1.5x    
frame= 1981 fps= 37 q=28.0 size=N/A time=00:01:19.21 bitrate=N/A speed=1.49x    
frame= 1995 fps= 37 q=28.0 size=N/A time=00:01:19.76 bitrate=N/A speed=1.49x    
frame= 2001 fps= 37 q=28.0 size=N/A time=00:01:20.02 bitrate=N/A speed=1.47x    
frame= 2005 fps= 36 q=28.0 size=N/A time=00:01:20.17 bitrate=N/A speed=1.46x    
frame= 2011 fps= 36 q=28.0 size=N/A time=00:01:20.40 bitrate=N/A speed=1.44x    
frame= 2016 fps= 36 q=25.0 size=N/A time=00:01:20.61 bitrate=N/A speed=1.43x    
frame= 2020 fps= 36 q=28.0 size=N/A time=00:01:20.76 bitrate=N/A speed=1.42x    
[hls @ 0x556862366080] Opening '/config/data/transcodes/bbedb369121ca7fc33c10c3fdaa84ca8352.ts' for writing
frame= 2025 fps= 35 q=28.0 size=N/A time=00:01:20.98 bitrate=N/A speed=1.42x    
frame= 2032 fps= 35 q=28.0 size=N/A time=00:01:21.25 bitrate=N/A speed=1.41x    
frame= 2034 fps= 35 q=28.0 size=N/A time=00:01:21.34 bitrate=N/A speed= 1.4x    
frame= 2039 fps= 34 q=28.0 size=N/A time=00:01:21.53 bitrate=N/A speed=1.38x    
frame= 2046 fps= 34 q=28.0 size=N/A time=00:01:21.81 bitrate=N/A speed=1.37x    
frame= 2052 fps= 34 q=28.0 size=N/A time=00:01:22.04 bitrate=N/A speed=1.35x    
frame= 2056 fps= 34 q=28.0 size=N/A time=00:01:22.21 bitrate=N/A speed=1.34x    
frame= 2063 fps= 33 q=28.0 size=N/A time=00:01:22.49 bitrate=N/A speed=1.31x    
frame= 2066 fps= 33 q=28.0 size=N/A time=00:01:22.62 bitrate=N/A speed= 1.3x    
frame= 2071 fps= 32 q=28.0 size=N/A time=00:01:22.81 bitrate=N/A speed=1.28x    
frame= 2079 fps= 32 q=28.0 size=N/A time=00:01:23.13 bitrate=N/A speed=1.27x    
frame= 2083 fps= 31 q=28.0 size=N/A time=00:01:23.28 bitrate=N/A speed=1.26x    
frame= 2089 fps= 31 q=28.0 size=N/A time=00:01:23.54 bitrate=N/A speed=1.25x    
frame= 2096 fps= 31 q=28.0 size=N/A time=00:01:23.81 bitrate=N/A speed=1.24x    
frame= 2104 fps= 31 q=28.0 size=N/A time=00:01:24.13 bitrate=N/A speed=1.24x    
frame= 2108 fps= 31 q=28.0 size=N/A time=00:01:24.28 bitrate=N/A speed=1.23x    
frame= 2118 fps= 31 q=28.0 size=N/A time=00:01:24.69 bitrate=N/A speed=1.22x    
frame= 2125 fps= 30 q=28.0 size=N/A time=00:01:24.97 bitrate=N/A speed=1.21x    
frame= 2131 fps= 30 q=28.0 size=N/A time=00:01:25.20 bitrate=N/A speed= 1.2x    
frame= 2139 fps= 30 q=28.0 size=N/A time=00:01:25.54 bitrate=N/A speed= 1.2x    
frame= 2140 fps= 30 q=28.0 size=N/A time=00:01:25.56 bitrate=N/A speed=1.19x    
frame= 2143 fps= 30 q=28.0 size=N/A time=00:01:25.69 bitrate=N/A speed=1.18x    
frame= 2148 fps= 29 q=28.0 size=N/A time=00:01:25.88 bitrate=N/A speed=1.17x    
frame= 2157 fps= 29 q=28.0 size=N/A time=00:01:26.25 bitrate=N/A speed=1.17x    
frame= 2165 fps= 29 q=28.0 size=N/A time=00:01:26.57 bitrate=N/A speed=1.17x    
frame= 2168 fps= 29 q=28.0 size=N/A time=00:01:26.69 bitrate=N/A speed=1.16x    
frame= 2176 fps= 29 q=28.0 size=N/A time=00:01:27.01 bitrate=N/A speed=1.15x    
frame= 2182 fps= 29 q=28.0 size=N/A time=00:01:27.25 bitrate=N/A speed=1.15x    
frame= 2183 fps= 28 q=28.0 size=N/A time=00:01:27.29 bitrate=N/A speed=1.14x    
frame= 2190 fps= 28 q=28.0 size=N/A time=00:01:27.57 bitrate=N/A speed=1.13x    
frame= 2195 fps= 28 q=28.0 size=N/A time=00:01:27.76 bitrate=N/A speed=1.12x    
frame= 2200 fps= 28 q=28.0 size=N/A time=00:01:27.97 bitrate=N/A speed=1.11x    
frame= 2204 fps= 28 q=28.0 size=N/A time=00:01:28.12 bitrate=N/A speed=1.11x    
frame= 2207 fps= 27 q=28.0 size=N/A time=00:01:28.25 bitrate=N/A speed= 1.1x    
frame= 2211 fps= 27 q=28.0 size=N/A time=00:01:28.40 bitrate=N/A speed=1.09x    
frame= 2213 fps= 27 q=28.0 size=N/A time=00:01:28.49 bitrate=N/A speed=1.09x    
frame= 2222 fps= 27 q=28.0 size=N/A time=00:01:28.85 bitrate=N/A speed=1.08x    
frame= 2226 fps= 27 q=28.0 size=N/A time=00:01:29.02 bitrate=N/A speed=1.08x    
frame= 2229 fps= 27 q=28.0 size=N/A time=00:01:29.13 bitrate=N/A speed=1.06x    
frame= 2236 fps= 27 q=28.0 size=N/A time=00:01:29.40 bitrate=N/A speed=1.06x    
frame= 2246 fps= 26 q=28.0 size=N/A time=00:01:29.81 bitrate=N/A speed=1.05x    
frame= 2251 fps= 26 q=28.0 size=N/A time=00:01:30.00 bitrate=N/A speed=1.05x    
frame= 2257 fps= 26 q=28.0 size=N/A time=00:01:30.26 bitrate=N/A speed=1.05x    
frame= 2261 fps= 26 q=28.0 size=N/A time=00:01:30.41 bitrate=N/A speed=1.04x    
frame= 2266 fps= 26 q=25.0 size=N/A time=00:01:30.62 bitrate=N/A speed=1.04x    
[hls @ 0x556862366080] Opening '/config/data/transcodes/bbedb369121ca7fc33c10c3fdaa84ca8353.ts' for writing
frame= 2271 fps= 26 q=28.0 size=N/A time=00:01:30.81 bitrate=N/A speed=1.02x    
frame= 2280 fps= 26 q=28.0 size=N/A time=00:01:31.17 bitrate=N/A speed=1.02x    
frame= 2285 fps= 25 q=28.0 size=N/A time=00:01:31.37 bitrate=N/A speed=1.02x    
frame= 2289 fps= 25 q=28.0 size=N/A time=00:01:31.54 bitrate=N/A speed=1.01x    
frame= 2299 fps= 25 q=28.0 size=N/A time=00:01:31.92 bitrate=N/A speed=1.01x    
frame= 2304 fps= 25 q=28.0 size=N/A time=00:01:32.13 bitrate=N/A speed=   1x    
frame= 2313 fps= 25 q=28.0 size=N/A time=00:01:32.50 bitrate=N/A speed=   1x    
frame= 2331 fps= 25 q=28.0 size=N/A time=00:01:33.20 bitrate=N/A speed=   1x    
frame= 2340 fps= 25 q=28.0 size=N/A time=00:01:33.56 bitrate=N/A speed=   1x    
frame= 2352 fps= 25 q=28.0 size=N/A time=00:01:34.05 bitrate=N/A speed=0.999x    
frame= 2367 fps= 25 q=28.0 size=N/A time=00:01:34.65 bitrate=N/A speed=0.993x    
frame= 2390 fps= 25 q=28.0 size=N/A time=00:01:35.57 bitrate=N/A speed=0.998x    
frame= 2405 fps= 25 q=28.0 size=N/A time=00:01:36.17 bitrate=N/A speed=0.998x    
frame= 2416 fps= 25 q=28.0 size=N/A time=00:01:36.61 bitrate=N/A speed=0.997x    
frame= 2431 fps= 25 q=28.0 size=N/A time=00:01:37.21 bitrate=N/A speed=0.998x    
frame= 2446 fps= 25 q=28.0 size=N/A time=00:01:37.81 bitrate=N/A speed=0.999x    
frame= 2464 fps= 25 q=28.0 size=N/A time=00:01:38.53 bitrate=N/A speed=   1x    
frame= 2478 fps= 25 q=28.0 size=N/A time=00:01:39.09 bitrate=N/A speed=   1x    
frame= 2491 fps= 25 q=28.0 size=N/A time=00:01:39.60 bitrate=N/A speed=   1x    
frame= 2508 fps= 25 q=28.0 size=N/A time=00:01:40.30 bitrate=N/A speed=   1x    
[hls @ 0x556862366080] Opening '/config/data/transcodes/bbedb369121ca7fc33c10c3fdaa84ca8354.ts' for writing
frame= 2526 fps= 25 q=28.0 size=N/A time=00:01:41.01 bitrate=N/A speed=1.01x    
frame= 2544 fps= 25 q=28.0 size=N/A time=00:01:41.73 bitrate=N/A speed=1.01x    
frame= 2556 fps= 25 q=28.0 size=N/A time=00:01:42.20 bitrate=N/A speed=   1x    
frame= 2571 fps= 25 q=28.0 size=N/A time=00:01:42.80 bitrate=N/A speed=1.01x    
frame= 2585 fps= 25 q=28.0 size=N/A time=00:01:43.38 bitrate=N/A speed=   1x    

[q] command received. Exiting.

[hls @ 0x556862366080] Opening '/config/data/transcodes/bbedb369121ca7fc33c10c3fdaa84ca8355.ts' for writing
frame= 2587 fps= 25 q=-1.0 Lsize=N/A time=00:01:43.42 bitrate=N/A speed=0.999x    
video:13755kB audio:1792kB subtitle:0kB other streams:0kB global headers:0kB muxing overhead: unknown
[libx264 @ 0x5568621a5f00] frame I:11    Avg QP:18.69  size: 49451
[libx264 @ 0x5568621a5f00] frame P:866   Avg QP:21.63  size: 11509
[libx264 @ 0x5568621a5f00] frame B:1710  Avg QP:24.48  size:  2090
[libx264 @ 0x5568621a5f00] consecutive B-frames:  4.5% 20.6%  4.5% 70.4%
[libx264 @ 0x5568621a5f00] mb I  I16..4: 24.4%  0.0% 75.6%
[libx264 @ 0x5568621a5f00] mb P  I16..4: 19.7%  0.0%  0.0%  P16..4: 40.4%  0.0%  0.0%  0.0%  0.0%    skip:39.9%
[libx264 @ 0x5568621a5f00] mb B  I16..4:  1.5%  0.0%  0.0%  B16..8: 12.3%  0.0%  0.0%  direct: 3.7%  skip:82.4%  L0:38.1% L1:49.0% BI:12.9%
[libx264 @ 0x5568621a5f00] coded y,uvDC,uvAC intra: 29.8% 42.1% 6.7% inter: 5.8% 9.6% 0.1%
[libx264 @ 0x5568621a5f00] i16 v,h,dc,p: 41% 29% 12% 19%
[libx264 @ 0x5568621a5f00] i4 v,h,dc,ddl,ddr,vr,hd,vl,hu: 30% 26%  9%  7%  6%  5%  7%  5%  6%
[libx264 @ 0x5568621a5f00] i8c dc,h,v,p: 39% 24% 28%  9%
[libx264 @ 0x5568621a5f00] Weighted P-Frames: Y:1.8% UV:1.5%
[libx264 @ 0x5568621a5f00] kb/s:1088.89